<mxfile host="Electron" modified="2024-01-24T06:24:02.610Z" agent="Mozilla/5.0 (Windows NT 10.0; Win64; x64) AppleWebKit/537.36 (KHTML, like Gecko) draw.io/22.0.3 Chrome/114.0.5735.289 Electron/25.8.4 Safari/537.36" etag="7pimsuvniTjtPjRbz53L" version="22.0.3" type="device">
  <diagram name="Seite-1" id="UEIBG9jSiqkxqz43Ge1k">
    <mxGraphModel dx="1036" dy="606" grid="1" gridSize="10" guides="1" tooltips="1" connect="1" arrows="1" fold="1" page="1" pageScale="1" pageWidth="1169" pageHeight="827" math="0" shadow="0">
      <root>
        <mxCell id="0" />
        <mxCell id="1" parent="0" />
        <mxCell id="qgTmB9cgLMFZMEhnEsoV-5" value="" style="edgeStyle=orthogonalEdgeStyle;rounded=0;orthogonalLoop=1;jettySize=auto;html=1;" parent="1" source="qgTmB9cgLMFZMEhnEsoV-1" target="qgTmB9cgLMFZMEhnEsoV-4" edge="1">
          <mxGeometry relative="1" as="geometry" />
        </mxCell>
        <mxCell id="qgTmB9cgLMFZMEhnEsoV-6" value="(Personenliste Anzeigen)" style="edgeLabel;html=1;align=center;verticalAlign=middle;resizable=0;points=[];" parent="qgTmB9cgLMFZMEhnEsoV-5" vertex="1" connectable="0">
          <mxGeometry x="-0.005" y="2" relative="1" as="geometry">
            <mxPoint as="offset" />
          </mxGeometry>
        </mxCell>
        <mxCell id="qgTmB9cgLMFZMEhnEsoV-1" value="InputPersonPage" style="rounded=1;whiteSpace=wrap;html=1;" parent="1" vertex="1">
          <mxGeometry x="200" y="210" width="120" height="60" as="geometry" />
        </mxCell>
        <mxCell id="qgTmB9cgLMFZMEhnEsoV-3" value="" style="edgeStyle=orthogonalEdgeStyle;rounded=0;orthogonalLoop=1;jettySize=auto;html=1;" parent="1" source="qgTmB9cgLMFZMEhnEsoV-2" target="qgTmB9cgLMFZMEhnEsoV-1" edge="1">
          <mxGeometry relative="1" as="geometry" />
        </mxCell>
        <mxCell id="qgTmB9cgLMFZMEhnEsoV-2" value="" style="ellipse;shape=doubleEllipse;html=1;dashed=0;whiteSpace=wrap;aspect=fixed;" parent="1" vertex="1">
          <mxGeometry x="230" y="90" width="60" height="60" as="geometry" />
        </mxCell>
        <mxCell id="qgTmB9cgLMFZMEhnEsoV-12" value="" style="edgeStyle=orthogonalEdgeStyle;rounded=0;orthogonalLoop=1;jettySize=auto;html=1;" parent="1" source="qgTmB9cgLMFZMEhnEsoV-4" target="qgTmB9cgLMFZMEhnEsoV-11" edge="1">
          <mxGeometry relative="1" as="geometry" />
        </mxCell>
        <mxCell id="qgTmB9cgLMFZMEhnEsoV-13" value="onTab[item[index])" style="edgeLabel;html=1;align=center;verticalAlign=middle;resizable=0;points=[];" parent="qgTmB9cgLMFZMEhnEsoV-12" vertex="1" connectable="0">
          <mxGeometry x="-0.2343" y="-2" relative="1" as="geometry">
            <mxPoint as="offset" />
          </mxGeometry>
        </mxCell>
        <mxCell id="qgTmB9cgLMFZMEhnEsoV-4" value="PersonListPage" style="rounded=1;whiteSpace=wrap;html=1;" parent="1" vertex="1">
          <mxGeometry x="200" y="340" width="120" height="60" as="geometry" />
        </mxCell>
        <mxCell id="qgTmB9cgLMFZMEhnEsoV-11" value="PersonDetailPage" style="rounded=1;whiteSpace=wrap;html=1;" parent="1" vertex="1">
          <mxGeometry x="200" y="470" width="120" height="60" as="geometry" />
        </mxCell>
        <mxCell id="qgTmB9cgLMFZMEhnEsoV-15" value="" style="endArrow=classic;html=1;exitX=1;exitY=0.5;exitDx=0;exitDy=0;entryX=1;entryY=0.5;entryDx=0;entryDy=0;curved=1;" parent="1" source="qgTmB9cgLMFZMEhnEsoV-11" target="qgTmB9cgLMFZMEhnEsoV-4" edge="1">
          <mxGeometry width="50" height="50" relative="1" as="geometry">
            <mxPoint x="390" y="540" as="sourcePoint" />
            <mxPoint x="440" y="490" as="targetPoint" />
            <Array as="points">
              <mxPoint x="400" y="440" />
            </Array>
          </mxGeometry>
        </mxCell>
        <mxCell id="rT5Qw4t97hHDnID6qHvG-3" value="back Pfeil" style="edgeLabel;html=1;align=center;verticalAlign=middle;resizable=0;points=[];" vertex="1" connectable="0" parent="qgTmB9cgLMFZMEhnEsoV-15">
          <mxGeometry x="0.3144" y="15" relative="1" as="geometry">
            <mxPoint x="-3" y="32" as="offset" />
          </mxGeometry>
        </mxCell>
        <mxCell id="qgTmB9cgLMFZMEhnEsoV-16" value="" style="endArrow=classic;html=1;exitX=1;exitY=0.5;exitDx=0;exitDy=0;entryX=1;entryY=0.5;entryDx=0;entryDy=0;curved=1;" parent="1" source="qgTmB9cgLMFZMEhnEsoV-4" target="qgTmB9cgLMFZMEhnEsoV-1" edge="1">
          <mxGeometry width="50" height="50" relative="1" as="geometry">
            <mxPoint x="330" y="510" as="sourcePoint" />
            <mxPoint x="330" y="380" as="targetPoint" />
            <Array as="points">
              <mxPoint x="370" y="300" />
            </Array>
          </mxGeometry>
        </mxCell>
        <mxCell id="rT5Qw4t97hHDnID6qHvG-4" value="back Pfeil" style="edgeLabel;html=1;align=center;verticalAlign=middle;resizable=0;points=[];" vertex="1" connectable="0" parent="qgTmB9cgLMFZMEhnEsoV-16">
          <mxGeometry x="-0.1807" y="18" relative="1" as="geometry">
            <mxPoint x="6" y="25" as="offset" />
          </mxGeometry>
        </mxCell>
        <mxCell id="rT5Qw4t97hHDnID6qHvG-1" value="" style="endArrow=classic;html=1;exitX=0;exitY=0.75;exitDx=0;exitDy=0;entryX=0;entryY=0.25;entryDx=0;entryDy=0;curved=1;" edge="1" parent="1" source="qgTmB9cgLMFZMEhnEsoV-1" target="qgTmB9cgLMFZMEhnEsoV-1">
          <mxGeometry width="50" height="50" relative="1" as="geometry">
            <mxPoint x="80" y="220" as="sourcePoint" />
            <mxPoint x="130" y="170" as="targetPoint" />
            <Array as="points">
              <mxPoint x="120" y="240" />
            </Array>
          </mxGeometry>
        </mxCell>
        <mxCell id="rT5Qw4t97hHDnID6qHvG-2" value="(Speichern)" style="edgeLabel;html=1;align=center;verticalAlign=middle;resizable=0;points=[];" vertex="1" connectable="0" parent="rT5Qw4t97hHDnID6qHvG-1">
          <mxGeometry x="-0.6746" y="-2" relative="1" as="geometry">
            <mxPoint x="-35" y="-8" as="offset" />
          </mxGeometry>
        </mxCell>
      </root>
    </mxGraphModel>
  </diagram>
</mxfile>
